<?xml version="1.0" encoding="UTF-8"?>
<svg id="Layer_2" data-name="Layer 2" xmlns="http://www.w3.org/2000/svg" viewBox="0 0 879.89 122.47">
  <defs>
    <style>
      .cls-1 {
        fill: #fff;
      }
    </style>
  </defs>
  <g id="Layer_7" data-name="Layer 7">
    <g>
      <path class="cls-1" d="m826.78,25.78l-.02-.04-32.53,74.12,20.35-9.54v29.32c1.65-.04,6.98-.05,12.2-.05,5.22,0,10.55.02,12.2.05v-29.32l20.35,9.54-32.53-74.12-.02.04Z"/>
      <path class="cls-1" d="m879.03,68.82c-1.71-6.39-5.46-11.47-11.19-14.79-6.45-3.74-13.17-4.51-20.08-2.48l-.86-2.06c1-1.51,1.84-3.11,2.49-4.86,1.62-4.4,2.07-8.86,1.26-13.45-1.14-6.45-4.3-11.74-9.59-15.6-4.31-3.15-9.1-4.78-14.26-4.84h0s0,0-.01,0,0,0-.01,0h0c-5.16.06-9.95,1.69-14.26,4.84-5.29,3.87-8.44,9.15-9.59,15.6-.81,4.59-.36,9.05,1.26,13.45.65,1.75,1.49,3.36,2.49,4.86l-.86,2.06c-6.91-2.03-13.63-1.26-20.08,2.48-5.73,3.32-9.49,8.4-11.19,14.79-3.49,13.04,4.05,25.53,15.37,29.64.38-.73.79-1.46,1.14-2.22.36-.76.67-1.55,1.01-2.36l34.7-78.87s0,0,0,.01v.05s0-.01.01-.03c0,.01,0,.02.01.03v-.05s0-.01,0-.01l34.7,78.87c.35.81.65,1.6,1.01,2.36.36.76.76,1.49,1.14,2.22,11.32-4.11,18.86-16.59,15.37-29.64Z"/>
    </g>
    <g>
      <g>
        <path class="cls-1" d="m74.09,100.13l-.46,22.02H30.03c-16.52,0-30.03-13.51-30.03-30.03v-52.56C0,23.04,13.51,9.53,30.03,9.53h46.88l-6.67,22.19H30.37c-4.51,0-8.34,3.67-8.34,8.34v51.72c0,4.5,3.84,8.34,8.34,8.34h43.73Z"/>
        <path class="cls-1" d="m120.3,122.15c-21.96,0-30.03-9-30.03-30.03V9.53h22.02v82.26c0,4.5,3.84,8.34,8.34,8.34h34.04l.3,22.02h-34.67Z"/>
        <path class="cls-1" d="m246.44,92.12c0,16.52-13.51,30.03-30.03,30.03h-23.36c-16.52,0-30.03-13.51-30.03-30.03V9.53h22.03v82.26c0,4.5,3.84,8.34,8.34,8.34h22.53c4.67,0,8.34-3.84,8.34-8.34V9.53h22.19v82.59Z"/>
        <path class="cls-1" d="m357.07,84.78v7.34c0,16.52-13.51,30.03-30.03,30.03h-61.73V9.53h53.89c16.52,0,30.03,13.52,30.03,30.03v3.67c0,6.17-1.84,12.18-4.67,17.19,7.51,5.34,12.51,14.35,12.51,24.36Zm-22.19.5c0-4.67-3.67-8.34-8.34-8.34h-53.84l-.13-22.19h46.12c4.67,0,8.34-3.67,8.34-8.34v-6.34c0-4.67-3.67-8.34-8.34-8.34h-31.37v68.41h39.21c4.67,0,8.34-3.84,8.34-8.34v-6.51Z"/>
        <path class="cls-1" d="m724.8,54.75h-31.37c-4.5,0-8.34-3.67-8.34-8.34v-6.34c0-4.67,3.84-8.34,8.34-8.34h46.38l.92-22.19h-47.63c-16.52,0-30.03,13.52-30.03,30.03v7.34c0,16.52,13.52,30.03,30.03,30.03h31.2c4.67,0,8.34,3.67,8.34,8.34v6.51c0,4.5-3.67,8.34-8.34,8.34h-55.3l-14.89,22.02h70.69c16.52,0,30.03-13.51,30.03-30.03v-7.34c0-16.52-13.52-30.03-30.03-30.03Z"/>
      </g>
      <path class="cls-1" d="m454.93,122.15c1.86-4.88,3.75-9.68,5.66-14.43V9.53h-22.02v56.3h-39.21V9.53h-22.19v112.62h22.19v-34.79h28.03l11.18-17.7v52.48h16.37Z"/>
      <path class="cls-1" d="m631.1,9.53v82.26c0,4.51-3.67,8.34-8.34,8.34h-22.53c-4.5,0-8.34-3.84-8.34-8.34V9.53h-22.02v81.1l10.09,23.75c5.32,4.78,12.27,7.77,19.94,7.77h23.36c16.52,0,30.03-13.52,30.03-30.03V9.53h-22.19Z"/>
      <path class="cls-1" d="m519.17,0s-19.89,46.46-27.76,65.28c-7.83,18.73-15.95,37.35-23.49,57.19h25.61c1.07-2.58,2.33-6.01,3.54-9.22h45.02c1.64,4.16,3.27,8.74,3.27,8.74l25.33-.74L519.17,0Zm-9.08,92.03l-11.32,15.26,19.72-53.85,14.89,38.6h-23.3Z"/>
    </g>
  </g>
</svg>