<?xml version="1.0" encoding="utf-8"?>
<!-- Generator: Adobe Illustrator 26.5.1, SVG Export Plug-In . SVG Version: 6.00 Build 0)  -->
<svg version="1.1" id="Layer_1" xmlns="http://www.w3.org/2000/svg" xmlns:xlink="http://www.w3.org/1999/xlink" x="0px" y="0px"
	 viewBox="0 0 200 200" style="enable-background:new 0 0 200 200;" xml:space="preserve">
<style type="text/css">
	.st0{fill:#FFFFFF;}
	.st1{fill:#0C3A61;}
	.st2{fill:#FDB914;}
</style>
<circle class="st0" cx="100" cy="100" r="70"/>
<polygon class="st0" points="79.13,47.8 155.34,49.62 166.41,97.45 157.44,120.19 147.14,132.05 98.31,129.36 75.43,129.36 "/>
<g>
	<path class="st1" d="M63.17,152.26c0-33.53,0-67,0-100.39c16.73-15.63,53.85-21.57,80.72,2.6c25.89,23.3,28.25,63.3,5.48,89.28
		C125.69,170.76,86.61,171.33,63.17,152.26z M95.13,111.68c-4.36,6.17-8.31,11.77-12.48,17.66c1.53,1.03,2.7,1.82,4.2,2.83
		c2.72-3.71,5.27-7.14,7.75-10.62c4.46-6.27,9.31-12.32,13.21-18.93c5.78-9.76,1.88-21.39-8.2-26.33
		c-7.09-3.47-15.63-2.16-21.46,3.31c-5.79,5.43-7.63,14.01-4.55,21.23c3.1,7.28,9.65,11.18,18.16,10.84
		C92.61,111.66,93.45,111.68,95.13,111.68z M146.28,74.54c-0.39-0.15-0.78-0.29-1.16-0.44c-10.88,15.73-21.75,31.45-32.63,47.18
		c0.19,0.34,0.38,0.68,0.57,1.03c8.93,0,17.87,0,27.04,0c0.32,3.18,0.57,5.76,0.85,8.53c1.77,0,3.26,0,4.91,0
		c0.21-2.87,0.39-5.34,0.58-7.99c1.37-0.42,2.59-0.8,4.01-1.23c0-1.38,0-2.65,0-4.06c-1.36-0.41-2.58-0.78-4.16-1.25
		C146.28,102.31,146.28,88.43,146.28,74.54z"/>
	<path class="st1" d="M36.4,79.54c3.55,1.23,7.12,2.46,10.96,3.8c-8.13,21.39-5.88,41.29,6.6,60.02
		C36.27,129.47,29.28,98.19,36.4,79.54z"/>
	<path class="st2" d="M55.43,67.91c-0.05,4.54-3.66,8.19-8.12,8.21c-4.33,0.02-8.03-3.52-8.08-7.72c-0.05-4.52,3.93-8.78,8.22-8.78
		C51.9,59.62,55.48,63.33,55.43,67.91z"/>
	<path class="st1" d="M104.56,93.07c0.07,7.58-5.47,13.23-13.05,13.31c-7.71,0.08-13.32-5.29-13.44-12.89
		c-0.12-7.67,5.73-13.73,13.25-13.72C98.67,79.77,104.49,85.63,104.56,93.07z"/>
	<path class="st1" d="M122.73,115.64c5.46-7.88,10.91-15.75,16.37-23.63c0.35,0.15,0.7,0.31,1.04,0.46c0,7.96,0,15.93,0,24.17
		c-5.88,0-11.37,0-16.86,0C123.1,116.31,122.91,115.98,122.73,115.64z"/>
</g>
</svg>
