<?xml version="1.0" encoding="UTF-8"?>
<svg id="Layer_2" data-name="Layer 2" xmlns="http://www.w3.org/2000/svg" viewBox="0 0 131.95 93.11">
  <defs>
    <style>
      .cls-1 {
        fill: #f9ba2b;
      }

      .cls-2 {
        fill: white;
      }
    </style>
  </defs>
  <g id="Layer_1-2" data-name="Layer 1">
    <g>
      <g>
        <path class="cls-2" d="m28.1,47.29c0-7.63,0-15.27-.01-22.9,0-.63.2-1.02.71-1.38,5.95-4.18,12.53-6.09,19.78-5.48,13.33,1.12,24.02,10.46,26.78,23.6,3.54,16.84-7.61,32.43-23.57,35.41-8.29,1.55-15.93-.16-22.87-4.97-.56-.39-.81-.79-.81-1.52.04-4.97.02-9.94.02-14.9,0-2.62,0-5.25,0-7.87h-.03Zm15.19,4.4c-2.12,2.92-4.14,5.69-6.18,8.5.75.51,1.43.98,2.14,1.47.17-.22.3-.39.43-.56,1.4-1.91,2.79-3.82,4.19-5.73,1.52-2.08,3.05-4.16,4.55-6.26,1.11-1.56,1.94-3.26,2.07-5.21.37-5.12-3.64-9.47-8.86-9.66-5.04-.18-9.32,3.93-9.35,8.98-.03,5.52,4.73,9.62,10.03,8.63.26-.05.53-.1.98-.18Zm7.58,5.22c.39,0,.59,0,.78,0,4.02,0,8.05.01,12.07-.01.56,0,.76.16.74.73-.04.97,0,1.94-.02,2.9-.01.49.13.72.65.68.51-.04,1.03-.03,1.55,0,.49.03.69-.13.67-.65-.04-1.01.01-2.02-.02-3.03-.01-.49.17-.66.64-.62.38.03.78.04,1.16-.01.15-.02.38-.23.38-.36.04-.74.02-1.49.02-2.31-.5,0-.9,0-1.3,0q-.88,0-.88-.87c0-6.39,0-12.78,0-19.16v-.73s-.1-.02-.15-.03c-5.4,7.78-10.79,15.56-16.28,23.47Z"/>
        <path class="cls-2" d="m24.33,67.5c-4.27-3.82-7.18-8.52-8.77-14.03-1.6-5.52-1.65-11.08-.26-16.74,1.83.62,3.57,1.21,5.35,1.81-4.09,10.35-2.73,19.96,3.68,28.95Z"/>
        <path class="cls-2" d="m20.62,36.95c-2.08,0-3.77-1.7-3.76-3.79,0-2.04,1.79-3.83,3.83-3.84,2.08-.01,3.77,1.69,3.77,3.78,0,2.15-1.7,3.85-3.84,3.85Z"/>
        <path class="cls-2" d="m47.61,43.16c0,3.45-2.71,6.15-6.18,6.17-3.52.01-6.27-2.69-6.28-6.15,0-3.43,2.8-6.24,6.22-6.26,3.42-.01,6.22,2.8,6.23,6.24Z"/>
        <path class="cls-2" d="m64.39,42.31v11.89h-8.45c2.8-4.04,5.54-7.99,8.29-11.94.05.02.11.03.16.05Z"/>
      </g>
      <path class="cls-1" d="m10.14,70.51c.49-.25.47-.52.2-1.03-.93-1.76-1.9-3.51-2.68-5.33-4.52-10.49-5.32-21.04-2.33-31.41.93-3.24,2.15-6.22,3.62-8.95C16.43,11.82,29.2,3.34,44.31,1.95c9.25-.85,18.12,1.07,25.81,5.07C61.9,1.85,51.99-.76,41.57.2,16.4,2.52-2.12,24.8.2,49.97c.45,4.9,1.67,9.55,3.51,13.84.94,2.58,2.07,5.1,3.39,7.53.3.56.57.64,1.04.33.65-.43,1.32-.82,2-1.17Z"/>
      <g>
        <path class="cls-1" d="m99.97,86.34c.03.24.06.45.1.74,1.47-1.15,2.88-1.33,4.18.21.3-.23.58-.46.87-.65,1.79-1.14,3.74-.19,3.86,1.92.08,1.44.02,2.89.02,4.34-.12.03-.2.06-.28.07q-1.14.09-1.14-1.06c0-.99,0-1.98,0-2.96-.01-.82-.33-1.33-.89-1.52-.63-.21-1.54.04-1.95.58-.12.16-.17.42-.17.64-.02,1.22-.04,2.44,0,3.66.02.59-.21.7-.73.69-.49,0-.79-.04-.77-.66.04-1.15,0-2.31-.02-3.47-.01-.63-.1-1.23-.83-1.47-.7-.22-1.6.04-2.04.65-.12.17-.15.43-.16.65-.01,1.18-.03,2.35,0,3.53.01.53-.08.78-.71.78-.65,0-.76-.25-.75-.82.03-1.7,0-3.4.01-5.11,0-.79.01-.8.81-.78.18,0,.37.03.57.05Z"/>
        <path class="cls-1" d="m82.05,85c-1.05-.28-2-.63-2.98-.78-.69-.11-1.44-.05-2.12.11-1.99.46-3.12,2.09-2.94,4.1.15,1.71,1.71,3.1,3.63,3.26,1.56.13,3-.24,4.35-1,.46.97.23,1.57-.72,1.9-1.57.53-3.17.67-4.79.33-2.51-.54-4.19-2.62-4.15-5.08.04-2.42,1.91-4.49,4.48-4.97,1.67-.31,3.26-.01,4.82.57.18.07.36.34.4.54.07.34.02.69.02,1.02Z"/>
        <path class="cls-1" d="m112.39,86.43c.91-.07,1.77-.28,2.57-.15.6.1,1.26.53,1.66,1,.94,1.1,1.01,2.43.49,3.74-.53,1.34-1.65,1.95-3.02,2.02-.89.04-1.79-.15-2.68-.26-.39-.05-.55-.28-.55-.7.01-2.88.02-5.75,0-8.63,0-.61.32-.61.75-.61.44,0,.78,0,.75.61-.04.82-.01,1.64,0,2.46,0,.22.02.44.03.51Zm1.29,5.39c1.07,0,1.79-.46,2.11-1.36.34-.96.06-2.07-.66-2.64-.65-.51-1.58-.55-2.35-.03-.2.14-.39.45-.4.69-.05.71-.02,1.42-.02,2.14,0,1.14.03,1.17,1.19,1.2.04,0,.08,0,.13,0Z"/>
        <path class="cls-1" d="m85.26,87.11c.91-.78,1.78-1.09,2.81-.86.93.21,1.63.86,1.7,1.8.1,1.5.1,3.02.11,4.53,0,.13-.22.35-.36.38-1,.17-1.1.07-1.1-.97,0-1.05,0-2.1,0-3.15-.01-.84-.41-1.4-1.04-1.53-.67-.14-1.74.31-2.03.89-.08.16-.08.36-.08.55,0,1.22-.03,2.44,0,3.65.02.57-.27.6-.7.59-.42,0-.76.03-.76-.59.03-2.98.03-5.96,0-8.94,0-.64.36-.57.77-.58.44-.02.7.05.69.6-.04,1.17-.01,2.34-.01,3.65Z"/>
        <path class="cls-1" d="m120.13,89.79c-.03,1.96,1.8,2.45,4.71,1.35.33.89.23,1.3-.63,1.53-.86.23-1.78.42-2.65.35-2.1-.18-3.32-2.06-2.89-4.26.37-1.9,2.22-2.99,4.19-2.47,1.31.34,2.29,1.74,2.21,3.1-.02.42-.29.4-.56.4-1.2,0-2.39,0-3.59,0-.25,0-.5,0-.79,0Zm.02-.91h3.4c-.04-.92-.53-1.43-1.41-1.5-1.1-.09-1.79.41-2,1.5Z"/>
        <path class="cls-1" d="m91.49,88.39c-.27-1.26-.04-1.76,1.1-2.02.69-.16,1.46-.17,2.17-.05,1.04.18,1.58.96,1.59,2.04.01.92,0,1.85,0,2.77q0,1,.96.77c.15.38.11.67-.29.89-.8.44-1.48.37-2.14-.24-.47.16-.91.36-1.38.46-.97.21-1.86-.22-2.15-1-.3-.81.04-1.66.98-2.13.61-.31,1.29-.48,1.94-.73.29-.11.71-.09.66-.59-.05-.47-.19-.86-.68-1.03-.69-.24-1.33-.05-1.93.29-.27.15-.52.35-.83.56Zm3.45,1.26c-.69.31-1.26.52-1.78.8-.41.22-.58.62-.4,1.07.21.54.67.67,1.19.56.44-.09.95-.15.99-.76.03-.5,0-1,0-1.68Z"/>
        <path class="cls-1" d="m131.95,86.95c-.26.4-.49.74-.74,1.12-.15-.08-.26-.14-.36-.2-1.3-.81-2.62-.11-2.69,1.46-.04,1.01-.04,2.02,0,3.03.02.58-.26.64-.73.63-.46,0-.8.01-.79-.64.04-1.81.04-3.62,0-5.42-.01-.65.35-.62.8-.64.49-.02.77.1.7.66-.02.18.01.37.02.49.58-.4,1.12-.92,1.77-1.18.73-.29,1.37.17,2.01.69Z"/>
      </g>
      <path class="cls-2" d="m97.73,70.35c-.33,1.81,1.07,4.13,2.97,4.98,1.4.62,2.84.68,4.27.1,1.41-.57,2.28-1.71,3.07-3.03.81.46,1.58.91,2.44,1.4-.28.44-.5.84-.77,1.22-2.09,2.88-5.64,4.11-9.16,3.2-3.15-.82-5.34-3.47-5.8-7-.21-1.65-.05-3.26.47-4.83,1.16-3.49,4.07-5.54,7.67-5.45,3.66.1,6.43,2.3,7.36,5.91.22.87.3,1.78.37,2.67.07.81,0,.83-.79.84-3.79,0-7.57,0-11.36,0-.25,0-.5,0-.74,0Zm9.76-2.52c-.19-2.32-2.45-4.24-4.88-4.2-2.33.04-4.67,2.1-4.77,4.2h9.65Z"/>
      <path class="cls-2" d="m81.83,66.93c-1.72,4.15-3.37,8.13-5.09,12.27-.17-.33-.27-.51-.36-.7-1.35-2.95-2.69-5.91-4.05-8.85-.2-.44-.18-.72.18-1.06.56-.52,1.06-1.12,1.67-1.78.83,1.91,1.63,3.74,2.5,5.74,1.73-4.19,3.4-8.24,5.14-12.46,1.75,4.21,3.43,8.25,5.16,12.43.15-.31.25-.5.34-.7,1.44-3.26,2.89-6.52,4.3-9.8.2-.47.45-.65.96-.62.81.04,1.63.01,2.6.01-2.75,5.95-5.46,11.8-8.25,17.83-1.73-4.17-3.39-8.17-5.11-12.32Z"/>
      <path class="cls-2" d="m122.04,64.05c-.83.44-1.59.83-2.34,1.22-.31-.37-.55-.73-.85-1.02-.67-.64-1.46-.81-2.32-.44-1.35.59-1.56,2.11-.38,2.99.53.39,1.15.66,1.75.94.74.35,1.51.63,2.24.99,1.91.93,3.03,2.41,2.9,4.6-.14,2.27-1.31,3.88-3.41,4.74-3.34,1.36-6.92-.33-8.08-3.73-.14-.41-.07-.62.31-.81.66-.34,1.3-.73,1.98-1.11.22.54.39,1.03.62,1.48.76,1.44,2.07,2.12,3.56,1.86,1.02-.18,1.72-.77,1.98-1.79.25-1.01-.02-1.91-.9-2.49-.66-.44-1.39-.76-2.1-1.11-.75-.37-1.54-.67-2.26-1.09-2.11-1.26-2.75-3.66-1.56-5.81.98-1.78,2.6-2.56,4.56-2.48,2,.08,3.36,1.23,4.3,3.09Z"/>
      <path class="cls-2" d="m131.95,62.05v2.65c-.67,0-1.31,0-1.94,0q-.88,0-.89.86c0,3.87,0,7.73,0,11.6q0,.89-.87.9c-.45,0-.9-.02-1.35,0-.5.03-.67-.15-.67-.66.03-1.95.01-3.91,0-5.87,0-2.06-.01-4.13,0-6.19,0-.51-.16-.68-.67-.66-.75.04-1.5,0-2.34,0,0-.81-.02-1.56.02-2.3,0-.12.26-.32.41-.33.62-.04,1.25-.05,1.87,0,.52.03.72-.13.71-.68-.03-1.37,0-2.75-.02-4.12,0-.48.15-.65.63-.62.56.04,1.12.03,1.68,0,.45-.02.6.14.6.59-.02,1.37.02,2.75-.02,4.12-.02.58.18.75.74.71.68-.05,1.36-.01,2.11-.01Z"/>
    </g>
  </g>
</svg>